<?xml version="1.0" standalone="no"?>
<!DOCTYPE svg PUBLIC "-//W3C//DTD SVG 1.1//EN" "http://www.w3.org/Graphics/SVG/1.1/DTD/svg11.dtd" >
<svg xmlns="http://www.w3.org/2000/svg">
<metadata>
This is a custom SVG webfont generated by Font Squirrel.
</metadata>
<defs>
<font id="webfontIQs8hLrS" horiz-adv-x="500" >
<font-face units-per-em="1000" ascent="800" descent="-200" />
<missing-glyph horiz-adv-x="260" />
<glyph unicode=" "  horiz-adv-x="260" />
<glyph unicode="&#x09;" horiz-adv-x="260" />
<glyph unicode="&#xa0;" horiz-adv-x="260" />
<glyph unicode="!" horiz-adv-x="215" d="M189 56q0 -25 -17.5 -42.5t-42.5 -17.5t-42.5 17.5t-17.5 42.5t17.5 42.5t42.5 17.5t42.5 -17.5t17.5 -42.5zM173 721l-15 -453q-16 -28 -29 -28q-24 0 -29 29l-15 452q0 13 14 13h59q15 0 15 -13z" />
<glyph unicode="%" horiz-adv-x="786" d="M317 576q0 -83 -39 -125q-33 -35 -86 -35t-87 35q-40 42 -40 125q0 79 44 122q36 35 83 35q46 0 81 -35q44 -43 44 -122zM531 717q12 16 28 16q6 0 12 -3q21 -8 21 -36l-330 -684q-15 -18 -31 -18q-6 0 -11 2q-21 9 -19 39zM721 149q0 -83 -40 -124q-33 -36 -86 -36 t-87 36q-40 41 -40 124q0 80 45 123q35 34 82 34t82 -34q44 -43 44 -123zM256 575q0 52 -24 79q-18 20 -41 20q-25 0 -42 -20q-24 -26 -24 -79q0 -101 65 -101q66 0 66 101zM660 149q0 51 -24 78q-19 21 -41 21q-25 0 -43 -20q-23 -26 -23 -80q0 -100 65 -100q66 0 66 101z " />
<glyph unicode="&#x26;" horiz-adv-x="582" d="M582 28q0 -5 -4 -8l-28 -25q-8 -5 -9 -5q-8 0 -12 5l-63 74q-97 -80 -200 -80q-91 0 -151 48q-65 52 -65 141q0 81 62 146q22 24 85 67q-63 76 -66 80q-33 49 -33 98q0 86 61 131q50 38 125 38q58 0 105 -41q54 -45 54 -114q0 -74 -60 -138q-27 -30 -88 -71l173 -207 q48 74 48 133v14q0 12 12 12h41q12 0 12 -17q0 -96 -69 -191l66 -82q4 -6 4 -8zM380 582q0 46 -35 75q-30 25 -71 25t-73 -26q-37 -29 -37 -74q0 -44 40 -101q7 -9 50 -59q65 46 75 56q51 49 51 104zM425 116l-190 230l-41 -29q-33 -26 -52 -53q-25 -37 -25 -79 q0 -60 45.5 -97t113.5 -37q73 0 149 65zM271 244z" />
<glyph unicode="(" horiz-adv-x="282" d="M261 770q-3 -5 -12 -15q-62 -76 -88 -130q-59 -120 -59 -278q0 -112 44 -234.5t108 -187.5q9 -10 -2 -15l-31 -15q-11 -6 -18 3q-55 48 -104 151q-69 142 -69 299t71 301q52 104 107 151q10 7 19 3l30 -15q14 -7 4 -18z" />
<glyph unicode=")" horiz-adv-x="282" d="M261 348q0 -157 -69 -299q-49 -103 -104 -151q-7 -9 -19 -3l-30 15q-12 5 -2 15q68 69 111 197q41 119 41 225q0 123 -36 224q-26 72 -72 134l-51 65q-10 11 3 18l31 15q9 4 18 -3q56 -47 108 -151q71 -144 71 -301z" />
<glyph unicode="*" d="M413 550q0 -5 -11 -9l-113 -32l73 -93q5 -10 5 -9q0 -4 -8 -10l-25 -20q-5 -4 -10 -4q-4 0 -9 8l-65 100l-65 -97q-5 -8 -9 -8q-5 0 -10 4l-24 18q-8 6 -8 10q0 -1 5 9l72 92l-112 30q-11 4 -11 9q0 2 3 11l8 28q3 11 9 11q1 0 9 -3l109 -41l-4 101q-1 25 -1 19 q0 11 10 11h38q10 0 10 -11q0 6 -1 -19l-4 -101l108 40q8 3 9 3q5 0 9 -11l10 -25q2 -4 3 -11z" />
<glyph unicode="+" horiz-adv-x="369" d="M345 310q28 -4 28 -28q0 -25 -28 -28h-108v-106q2 -11 -7 -20t-20 -9t-20 8t-9 19v108h-107q-10 0 -19 8.5t-9 19.5q0 24 28 28h107v109q0 27 28 27t29 -27v-109h107z" />
<glyph unicode="," horiz-adv-x="215" d="M197 45q-3 -88 -80 -134q-22 -11 -29 -8q-9 4 3 14q50 40 54 79q-4 -2 -22 -3q-24 3 -37 21t-11 43q3 25 22.5 40.5t43.5 13.5q24 -3 40.5 -22.5t15.5 -43.5z" />
<glyph unicode="-" horiz-adv-x="399" d="M331 310q28 -4 28 -28q0 -23 -28 -28h-263q-28 5 -28 28q0 24 28 28h263z" />
<glyph unicode="&#x2010;" horiz-adv-x="399" d="M331 310q28 -4 28 -28q0 -23 -28 -28h-263q-28 5 -28 28q0 24 28 28h263z" />
<glyph unicode="." horiz-adv-x="215" d="M195 56q0 -25 -17.5 -42.5t-42.5 -17.5t-42.5 17.5t-17.5 42.5t17.5 42.5t42.5 17.5t42.5 -17.5t17.5 -42.5z" />
<glyph unicode="/" horiz-adv-x="456" d="M391 822q10 17 26 17q5 0 10 -2q22 -8 16 -36l-372 -924q-11 -18 -27 -18q-5 0 -10 2q-22 9 -15 37z" />
<glyph unicode="0" d="M473 365q0 -379 -223 -379q-122 0 -175 103q-48 91 -48 276q0 383 222 383q224 0 224 -383zM401 370q0 319 -151 319q-152 0 -152 -319q0 -326 150 -326q153 0 153 326z" />
<glyph unicode="1" horiz-adv-x="404" d="M248 740v-690h89q27 -1 27 -25q0 -23 -27 -25h-248q-29 2 -29 25q0 24 29 25h95v591l-101 -55q-27 4 -27 27q0 21 28 35z" />
<glyph unicode="2" d="M253 743q52 0 97 -26q83 -46 83 -159q0 -89 -120 -255l-180 -247h289q28 0 28 -28q0 -29 -30 -28h-340q-30 12 -30 28q0 17 12 34l199 276q54 76 74 113q33 60 33 106q0 60 -31 94.5t-86 34.5q-93 0 -120 -86q-4 -27 -29 -27q-26 0 -26 31q0 56 52 97.5t125 41.5z" />
<glyph unicode="3" d="M258 744q54 -1 99 -32q73 -51 73 -164q0 -57 -42 -100q-21 -21 -75 -54q66 -29 89 -49q57 -50 57 -143q0 -88 -69 -152q-64 -60 -144 -60q-147 0 -205 71q-7 10 0 18l23 27q1 0 4 2q6 3 11 -1q35 -32 72.5 -44t96.5 -12q51 0 95.5 44.5t44.5 105.5q0 94 -76 131 q-42 21 -97 21h-43q-13 0 -13 13v45q0 1 1.5 6t8.5 5h46q52 0 99 38.5t47 91.5q0 61 -35 100q-30 33 -68 34q-51 0 -83 -15q-15 -7 -58 -41q-10 -8 -14 1l-24 25q-9 8 -1 18q59 72 180 70z" />
<glyph unicode="4" d="M468 232q0 -23 -27 -27h-78v-192q0 -15 -12 -15h-39q-12 0 -12 14v192l-233 1q-7 0 -13 2q-15 6 -19 20q-3 8 -3 17q0 16 8 30l208 447q11 22 29 22q12 0 22.5 -8.5t10.5 -19.5q0 -7 -4 -13l-210 -444h204v129q0 14 12 14h39q12 0 12 -13v-130h77q28 -2 28 -26z" />
<glyph unicode="5" d="M110 733h290q27 -12 27 -30q0 -24 -27 -28h-246v-237q34 5 66 5q119 0 182 -65q57 -59 57 -161q0 -93 -65 -159q-68 -68 -168 -68q-127 0 -185 71q-7 10 0 18l23 27q1 0 4 2q6 3 10 -1h1q38 -34 63 -44q30 -12 86 -12q69 0 115.5 49t46.5 115q0 165 -177 165 q-25 0 -54 -3l-58 -9q-15 -2 -15 15l1 328q0 23 23 22z" />
<glyph unicode="6" d="M311 744q61 0 94 -21q10 -7 6 -17l-13 -32q0 2 -5.5 -2.5t-7.5 -3.5q-13 4 -26 9q-21 7 -41 7q-99 0 -157 -120q-42 -89 -42 -167q13 24 47 45q46 29 97 29q65 0 118 -48q70 -64 70 -186q0 -107 -55 -177t-147 -70q-94 0 -146.5 80t-52.5 214q0 162 45 282 q67 178 216 178zM384 236q0 78 -34.5 128t-90.5 50q-61 0 -98 -54.5t-37 -130.5q0 -78 37.5 -129t90.5 -51t90 45q42 52 42 142z" />
<glyph unicode="7" horiz-adv-x="473" d="M443 711q0 -6 -9 -28l-259 -627q-6 -13 -16 -33q-15 -22 -36 -22q-28 0 -28 24q0 12 6 25l255 625h-298q-28 12 -28 28q0 26 28 30h362q23 1 23 -22z" />
<glyph unicode="8" d="M251 743q57 0 99 -23q81 -45 81 -164q0 -90 -114 -160q143 -62 143 -212q0 -89 -59 -141.5t-150 -53.5q-94 0 -152.5 54t-58.5 146q0 153 136 208q-105 53 -105 159q0 120 81 165q41 22 99 22zM362 560q0 69 -37 102q-29 26 -75 26q-110 0 -110 -128q0 -88 111 -136 q55 25 80 51q31 34 31 85zM389 183q0 66 -23 106q-18 31 -54 52l-62 34q-77 -43 -91 -56q-48 -46 -48 -131q0 -65 36.5 -103t102.5 -38q63 0 101 37t38 99zM176 397z" />
<glyph unicode="9" d="M448 445q0 -186 -37 -288q-62 -167 -227 -167q-61 0 -94 21q-10 6 -6 17l13 32q0 -3 5.5 1.5t7.5 4.5q13 -5 26 -9q21 -7 41 -7q119 0 170 121q30 72 30 160q-14 -26 -44 -46q-44 -29 -101 -29q-55 0 -108 49q-72 66 -72 185q0 109 56.5 181.5t147.5 72.5q93 0 143 -84 q49 -79 49 -215zM369 500q0 80 -32 132.5t-84 52.5q-53 0 -90 -48q-42 -53 -42 -143q0 -78 35 -129.5t91 -51.5q60 0 93 57q29 51 29 130z" />
<glyph unicode=":" horiz-adv-x="215" d="M195 56q0 -25 -17.5 -42.5t-42.5 -17.5t-42.5 17.5t-17.5 42.5t17.5 42.5t42.5 17.5t42.5 -17.5t17.5 -42.5zM195 336q0 -25 -17.5 -42.5t-42.5 -17.5t-42.5 17.5t-17.5 42.5t17.5 42.5t42.5 17.5t42.5 -17.5t17.5 -42.5z" />
<glyph unicode=";" horiz-adv-x="215" d="M195 329q0 -25 -17.5 -42.5t-42.5 -17.5t-42.5 17.5t-17.5 42.5t17.5 42.5t42.5 17.5t42.5 -17.5t17.5 -42.5zM197 45q-3 -88 -80 -134q-22 -11 -29 -8q-9 4 3 14q50 40 54 79q-4 -2 -22 -3q-24 3 -37 21t-11 43q3 25 22.5 40.5t43.5 13.5q24 -3 40.5 -22.5t15.5 -43.5z " />
<glyph unicode="&#x3c;" horiz-adv-x="289" d="M213 513l9 -3l27 -15q9 -5 9 -10q0 -1 -4 -9l-151 -191l151 -190q5 -6 5 -9q0 -4 -10 -10l-27 -15q-5 -3 -9 -3q-6 0 -10 7l-168 211q-5 5 -5 9q0 5 5 10l168 211q6 7 10 7z" />
<glyph unicode="=" horiz-adv-x="369" d="M341 351q28 -4 28 -27q0 -24 -28 -29h-263q-28 6 -28 29t28 27h263zM341 253q28 -5 28 -28t-28 -28h-263q-28 5 -28 28t28 28h263z" />
<glyph unicode="&#x3e;" horiz-adv-x="289" d="M259 285q0 -4 -5 -9l-168 -211q-4 -7 -10 -7q-4 0 -9 3l-27 15q-10 6 -10 10q0 3 5 9l151 190l-151 191q-4 8 -4 9q0 5 9 10l27 15l9 3q4 0 10 -7l168 -211q5 -5 5 -10z" />
<glyph unicode="?" horiz-adv-x="413" d="M256 56q0 -25 -17.5 -42.5t-42.5 -17.5t-42.5 17.5t-17.5 42.5t17.5 42.5t42.5 17.5t42.5 -17.5t17.5 -42.5zM373 548q0 -76 -50 -130q-42 -43 -94 -54l-7 -107q-2 -28 -28 -28q-27 0 -28 29l-6 140q63 0 107 44.5t44 108.5q0 62 -40 102q-34 34 -70 34q-46 1 -75 -13 q-14 -7 -52 -36q-9 -8 -13 0l-21 25q-7 8 0 16q57 64 161 63q51 -1 97 -33q75 -51 75 -161z" />
<glyph unicode="@" horiz-adv-x="812" d="M771 226q0 -117 -58 -180q-55 -58 -148 -58q-49 0 -74.5 24t-25.5 60q0 7 1 14h-2q-15 -38 -51 -66q-40 -32 -86 -32q-94 0 -94 123q0 104 54 170q57 72 157 72q56 0 117 -13l-33 -182q-4 -24 -4 -42q0 -67 55 -67q54 0 90 42q41 48 41 131q0 104 -71 173q-77 75 -205 75 q-132 0 -228 -93q-99 -96 -99 -237q0 -131 78 -209q79 -81 217 -81q64 0 138 22q13 3 13 -6v-40q0 -16 -13 -18q-67 -19 -148 -19q-163 0 -258 96q-93 93 -93 248q0 171 118 285q114 110 279 110q153 0 247 -92q86 -86 86 -210zM485 297q-19 6 -56 6q-61 0 -101 -64 q-35 -55 -35 -119q0 -74 50 -74q43 0 78.5 55.5t54.5 149.5z" />
<glyph unicode="A" horiz-adv-x="741" d="M719 25q0 -23 -28 -25h-213q-28 2 -28 25t28 25h77l-59 174h-256l-54 -174h77q28 -2 28 -25t-28 -25h-213q-28 2 -28 25t27 25h73l205 671q10 25 31 25q28 0 33 -23l229 -673h72q27 -2 27 -25zM480 277l-121 346l-107 -346h228z" />
<glyph unicode="B" horiz-adv-x="583" d="M50 0q-28 3 -28 26t27 26h74v629h-73q-28 3 -28 25q0 24 28 27h220q231 0 231 -178q0 -71 -41 -119q-33 -39 -78 -49q156 -30 156 -177q0 -86 -50 -141q-64 -69 -155 -69h-283zM434 554q0 86 -82 115q-34 11 -82 11h-81v-271h66q179 0 179 145zM469 212q0 141 -200 141 h-80v-300h100q99 0 145 49q35 38 35 110z" />
<glyph unicode="C" horiz-adv-x="609" d="M546 554q-23 -29 -27 -29q-24 0 -26 28v86q-45 28 -52 31q-43 17 -124 17q-69 0 -125 -49q-95 -84 -95 -273q0 -176 78 -260q56 -61 133 -61q105 0 183 50v84q2 27 26 27q23 0 27 -28v-116q-26 -24 -82 -46q-74 -29 -154 -29q-120 0 -196 87q-90 102 -90 297 q0 218 134 318q76 56 164 56q145 0 226 -75v-115z" />
<glyph unicode="D" horiz-adv-x="654" d="M602 360q0 -173 -95 -269q-90 -91 -244 -91h-213q-28 5 -28 28t27 26h73v625h-72q-28 4 -28 26q0 24 28 28h209q138 0 230 -81q113 -100 113 -292zM533 364q0 162 -94 247q-74 68 -180 68h-70v-625h76q113 0 184 68q84 81 84 242z" />
<glyph unicode="E" horiz-adv-x="521" d="M489 733v-129q-4 -28 -27 -28q-24 0 -28 27v74l-244 1v-273h144v48q5 27 28 27t26 -28v-138q-4 -28 -27 -28t-27 28v38h-144v-297h259v74q11 28 29 28q23 0 27 -28v-129h-455q-11 0 -19.5 8.5t-8.5 19.5q0 27 27 27h75v623h-74q-28 0 -28 26q0 29 28 29h439z" />
<glyph unicode="F" horiz-adv-x="507" d="M497 733v-129q-4 -28 -27 -28q-24 0 -28 27v74l-252 1v-273h143v48q5 27 28 27t26 -28v-138q-4 -28 -27 -28t-27 28v38h-143v-302h74q28 -2 28 -25t-28 -25h-214q-27 2 -27 25t27 25h75v628h-75q-28 0 -28 27q0 28 28 28h447z" />
<glyph unicode="G" horiz-adv-x="617" d="M321 743q148 0 228 -80v-115q-4 -29 -27 -29q-24 0 -26 28v86q-42 29 -48 32q-46 20 -127 20q-79 0 -144 -69q-82 -89 -82 -253q0 -176 78 -259q57 -60 134 -60q138 0 195 100v116h-102q-27 0 -27 28q0 24 27 27h166l1 -295q0 -31 -32 -31q-33 0 -33 28v45 q-66 -76 -197 -76q-120 0 -195 86q-88 101 -88 296q0 186 107 291q86 84 192 84z" />
<glyph unicode="H" horiz-adv-x="688" d="M635 733q28 -2 28 -26q0 -22 -28 -24h-71v-633h70q29 -2 29 -25t-28 -25h-214q-27 2 -27 25t27 25h74v299h-306v-299h74q28 -2 28 -25t-28 -25h-213q-28 2 -28 25t27 25h73v633h-72q-28 2 -28 24q0 24 28 26h213q28 -2 28 -26q0 -22 -28 -24h-74v-276h306v276h-74 q-27 2 -27 24q0 24 27 26h214z" />
<glyph unicode="I" horiz-adv-x="311" d="M264 733q27 -2 27 -26q0 -22 -27 -24h-74v-633h74q27 -2 27 -25t-27 -25h-214q-28 2 -28 25t27 25h73v633h-72q-28 2 -28 24q0 24 28 26h214z" />
<glyph unicode="J" horiz-adv-x="391" d="M366 707q0 -22 -27 -24h-74v-496q0 -87 -14 -126q-28 -73 -113 -73q-46 0 -109 35q-14 9 -7 20l16 27q5 13 15 6q38 -31 81 -31q29 0 46 23q16 20 16 45q1 46 1 78v492h-72q-28 2 -28 24q0 24 28 26h214q27 -2 27 -26z" />
<glyph unicode="K" horiz-adv-x="678" d="M50 0q-28 2 -28 25t27 25h74v633h-73q-28 2 -28 24q0 24 28 26h213q28 -2 28 -26q0 -22 -28 -24h-74v-294l252 294h-64q-28 2 -28 24q0 24 28 26h207q28 -2 28 -26q0 -22 -28 -24h-69l-220 -256l248 -377h73q28 -2 28 -25t-28 -25h-115l-248 379l-64 -78v-251h74 q28 -2 28 -25t-28 -25h-213z" />
<glyph unicode="L" horiz-adv-x="508" d="M503 0h-453q-28 5 -28 28t27 28h74v627h-73q-28 2 -28 24q0 24 28 26h213q28 -2 28 -26q0 -22 -28 -24h-73v-627h257v73q11 28 29 28q23 0 27 -28v-129z" />
<glyph unicode="M" horiz-adv-x="852" d="M773 733q28 -2 28 -26q0 -22 -28 -24h-73l28 -633h74q27 -2 27 -25t-28 -25h-213q-28 2 -28 25t28 25h74l-27 600l-172 -584q-10 -25 -31 -25q-28 0 -33 23l-181 587l-29 -601h74q28 -2 28 -25t-28 -25h-213q-28 2 -28 25t27 25h75l30 633h-74q-28 2 -28 24q0 24 28 26 h138h30q12 -2 15 -13l165 -562l162 562q3 11 15 13h30h138z" />
<glyph unicode="N" horiz-adv-x="698" d="M673 707q0 -22 -28 -24h-72v-669q0 -25 -30 -25q-21 0 -33 23l-321 636v-598h74q28 -2 28 -25t-28 -25h-213q-28 2 -28 25t27 25h75v633h-74q-28 2 -28 24q0 24 28 26h136q39 0 45 -13l276 -559l-1 522h-75q-27 2 -27 24q0 24 27 26h214q28 -2 28 -26z" />
<glyph unicode="O" horiz-adv-x="618" d="M588 365q0 -173 -75.5 -276t-203.5 -103q-130 0 -204.5 102.5t-74.5 276.5q0 172 78 277.5t201 105.5q116 0 192 -90q87 -103 87 -293zM514 370q0 159 -65 245q-55 74 -140 74t-141 -74q-65 -86 -65 -245t66 -249q57 -77 139 -77q84 0 141 77q65 89 65 249z" />
<glyph unicode="P" horiz-adv-x="502" d="M492 546q0 -98 -77 -154q-62 -44 -158 -44h-68v-298h74q28 -2 28 -25t-28 -25h-213q-28 2 -28 25t27 25h73v631h-72q-28 3 -28 25q0 24 28 27h211q120 0 183 -64q48 -50 48 -123zM425 544q0 82 -77 117q-42 19 -91 19h-68v-276h63q64 0 110 26q63 36 63 114z" />
<glyph unicode="Q" horiz-adv-x="625" d="M22 365q0 172 78 277.5t201 105.5q116 0 192 -90q87 -103 87 -293q0 -240 -140 -337q17 -55 78 -55q26 0 61 24q10 7 20 7q21 0 21 -21q0 -11 -15 -23q-41 -35 -87 -35q-98 0 -120 80q-44 -19 -97 -19q-124 0 -201.5 104t-77.5 275zM508 370q0 159 -66 247 q-56 76 -141 76t-142 -76q-66 -88 -66 -247q0 -185 92 -274q0 27 27 54q35 33 90 33q57 0 93 -34q29 -26 29 -51q84 71 84 272zM383 66q0 27 -23 49t-58 22q-33 0 -56 -20.5t-23 -51.5q39 -24 78 -24q42 0 82 25z" />
<glyph unicode="R" horiz-adv-x="585" d="M50 0q-28 2 -28 25t27 25h74v631h-73q-28 3 -28 25q0 24 28 27h213q104 0 160 -47t56 -135q0 -68 -33 -116q-46 -66 -148 -81l188 -304h62q28 -2 28 -25t-28 -25h-100l-218 352h-41v-302h74q28 -2 28 -25t-28 -25h-213zM414 547q0 133 -169 133h-56v-271h63 q162 0 162 138z" />
<glyph unicode="S" horiz-adv-x="499" d="M260 743q102 0 173 -47v-119q-4 -29 -27 -29q-24 0 -26 28v85q-49 27 -119 27q-63 0 -103 -29q-47 -35 -47 -105q0 -48 39 -81q29 -26 87 -48l91 -32q134 -54 134 -204q0 -73 -57 -132q-65 -67 -175 -68q-124 -1 -208 74v137q4 28 27 28t26 -28v-104q49 -49 154 -49 q75 0 125 51q37 39 37 90q0 63 -26 100q-20 28 -59 46l-65 24l-70 26q-55 25 -87 58q-42 45 -42 108q0 118 102 167q55 26 116 26z" />
<glyph unicode="T" horiz-adv-x="554" d="M544 733v-129q-3 -28 -27 -28q-23 0 -28 27v75l-178 1v-629h84q28 -2 28 -25t-28 -25h-235q-28 2 -28 25t27 25h83v629l-177 -1v-75q-5 -27 -28 -27t-27 28v129h534z" />
<glyph unicode="U" horiz-adv-x="689" d="M669 707q0 -22 -28 -24h-73v-463q0 -103 -56 -165q-60 -66 -171 -66q-110 0 -169 68q-52 62 -52 163v463h-72q-28 2 -28 24q0 24 28 26h213q28 -2 28 -26q0 -22 -28 -24h-73v-463q0 -170 153 -170q159 0 159 170v463h-72q-28 2 -28 24q0 24 28 26h213q28 -2 28 -26z" />
<glyph unicode="V" horiz-adv-x="689" d="M674 707q0 -22 -28 -24h-73l-195 -668q-4 -26 -33 -26q-25 0 -33 26l-197 668h-72q-28 2 -28 24q0 24 28 26h213q28 -2 28 -26q0 -22 -28 -24h-73l163 -557l159 557h-72q-28 2 -28 24q0 24 28 26h213q28 -2 28 -26z" />
<glyph unicode="W" horiz-adv-x="885" d="M875 707q0 -23 -29 -25h-55l-161 -671q-2 -6 -12 -15t-23 -9q-27 0 -33 24l-121 446l-110 -446q-2 -5 -10 -13q-12 -11 -25 -11q-14 0 -26 11q-8 7 -9 13l-171 671h-52q-28 2 -28 25q0 24 28 25l178 1q29 -3 29 -26t-29 -25h-62l142 -577l119 499q6 25 26 25q19 0 25 -25 l128 -495l133 573h-60q-27 2 -27 25q0 24 27 25h179q29 -2 29 -25z" />
<glyph unicode="X" horiz-adv-x="600" d="M549 732q29 -3 29 -26t-29 -24h-50l-157 -296l162 -336h61q27 -1 27 -25q0 -23 -27 -25h-169q-29 2 -29 25q0 24 29 25h39l-128 268l-128 -268h43q28 -1 28 -25q0 -23 -28 -25h-172q-28 2 -28 25q0 24 28 25h61l161 336l-156 296h-47q-28 1 -28 24q0 24 28 26h160 q28 -3 28 -26t-28 -24h-45l123 -235l123 235h-45q-28 1 -28 24q0 24 28 26h164z" />
<glyph unicode="Y" horiz-adv-x="617" d="M602 708q0 -24 -29 -25h-59l-177 -364v-269h71q28 -2 28 -25t-27 -25h-214q-28 2 -28 25t28 25h74v269l-174 364h-52q-28 1 -28 25q0 23 28 25h178q29 -2 29 -25q0 -24 -29 -25h-59l142 -294l144 294h-54q-27 1 -27 25q0 23 27 25h179q29 -2 29 -25z" />
<glyph unicode="Z" horiz-adv-x="508" d="M445 733q25 1 25 -22q0 -7 -12 -28l-350 -627h328v75q2 28 26 28q23 0 27 -28v-131h-441q-26 0 -26 23q0 5 12 27l347 625h-294v-75q-4 -28 -27 -28t-27 28v133h412z" />
<glyph unicode="\" horiz-adv-x="456" d="M71 822l372 -924q7 -28 -15 -37q-5 -2 -10 -2q-16 0 -27 18l-372 924q-6 28 16 36q5 2 10 2q16 0 26 -17z" />
<glyph unicode="^" horiz-adv-x="489" d="M437 565q0 -3 -3 -7l-12 -22q-4 -8 -8 -8q-2 0 -7 4l-152 121l-153 -121q-6 -3 -7 -3q-4 0 -8 7l-12 22l-2 7q0 4 5 8l169 134q4 4 8 4q3 0 7 -4l169 -134q6 -3 6 -8zM248 522zM248 522z" />
<glyph unicode="_" horiz-adv-x="856" d="M829 54q28 -4 28 -28q0 -23 -28 -28h-808q-28 5 -28 28q0 24 28 28h808z" />
<glyph unicode="`" horiz-adv-x="489" d="M172 707l188 -111q13 -11 13 -25q0 -7 -4 -13q-7 -13 -21 -13q-8 0 -16 4l-188 111q-15 11 -15 25q0 6 4 13q8 13 23 13q8 0 16 -4zM172 707l188 -111q13 -11 13 -25q0 -7 -4 -13q-7 -13 -21 -13q-8 0 -16 4l-188 111q-15 11 -15 25q0 6 4 13q8 13 23 13q8 0 16 -4z" />
<glyph unicode="a" horiz-adv-x="511" d="M506 25q0 -23 -28 -25h-153v55q-7 -20 -40 -41q-39 -25 -80 -25q-84 0 -127 45q-41 42 -38 110q7 168 286 168q0 90 -7 113q-17 53 -84 53q-109 0 -109 -84q0 -12 -9 -11h-38q-11 0 -11 9q0 47 36 83q45 47 128 47q156 0 156 -160v-312h90q28 -1 28 -25zM325 257 q-89 0 -133 -12q-91 -26 -91 -105q0 -101 106 -101q46 0 84 37q34 34 34 65v116z" />
<glyph unicode="b" horiz-adv-x="545" d="M501 248q0 -132 -71 -202q-58 -57 -141 -57q-32 0 -64 16t-48 42v-7q0 -22 -11 -40h-69q16 25 16 61v622h-86q-27 2 -27 25q0 24 28 25l149 -2v-278q43 70 129 70q72 0 123 -49q72 -70 72 -226zM431 256q0 97 -33 158.5t-96 61.5q-49 0 -85 -36q-40 -39 -40 -103v-179 q0 -47 28 -81q31 -37 81 -37q74 0 112 67q33 57 33 149z" />
<glyph unicode="c" horiz-adv-x="488" d="M265 524q96 0 159 -50v-81q-4 -28 -27 -28q-24 0 -26 28v57q-41 24 -107 24q-53 0 -92 -45q-51 -59 -51 -174q0 -124 54 -179q34 -34 79 -34t80 27q41 32 41 85q0 14 11 14h44q7 0 7 -12q0 -51 -32 -96q-49 -72 -156 -72q-83 0 -136 60q-63 71 -63 210q0 134 77 208 q61 58 138 58z" />
<glyph unicode="d" horiz-adv-x="556" d="M433 733v-683h90q28 -1 28 -25q0 -23 -28 -25h-153v52q-7 -29 -58 -51q-29 -12 -58 -12q-87 0 -140 57q-63 67 -63 202q0 157 88 229q57 46 121 46q77 0 110 -56v216h-84q-27 2 -27 25q0 24 28 25h146zM370 347q-2 59 -30.5 92.5t-75.5 33.5q-55 0 -97 -49 q-51 -62 -51 -178q0 -68 25 -124q38 -82 119 -82q44 0 77 40t33 101v166z" />
<glyph unicode="e" horiz-adv-x="489" d="M439 256h-323q0 -217 133 -217q110 0 127 106q0 14 10 14h40q8 0 8 -12q-7 -82 -63 -123q-47 -35 -121 -35q-96 0 -149 74q-51 71 -51 195q0 133 70 206q56 58 128 58q70 0 119 -47q72 -68 72 -219zM373 310q0 81 -44 126q-34 36 -75 36q-45 0 -80 -33q-45 -43 -55 -129 h254z" />
<glyph unicode="f" horiz-adv-x="386" d="M381 700l-13 -19q-6 -8 -17 -2l-31 14q-26 9 -62 9q-39 0 -62 -34q-18 -27 -18 -56v-101h108q27 -2 27 -26q0 -23 -27 -25h-108v-410h69q28 -2 28 -25t-28 -25h-201q-28 2 -28 25t28 25h67v410h-58q-27 3 -27 25q0 24 28 26h57v54q0 185 152 185q62 0 111 -33 q10 -7 5 -17z" />
<glyph unicode="g" horiz-adv-x="541" d="M531 402q-22 -27 -27 -27q-24 0 -26 27v55q-12 11 -28 11q-26 0 -47 -21q14 -17 24 -55.5t8 -68.5q-3 -42 -20 -77q-38 -77 -131 -93q-27 -5 -53 -5h-38q-67 -6 -67 -40q0 -25 25 -34q30 -10 126 -10q100 0 157 -42q54 -40 54 -105q0 -70 -71.5 -115t-175.5 -45 q-111 0 -174 55q-52 45 -51 97q2 105 122 131q-72 13 -72 65q0 50 79 72q-88 46 -85 158t85 160q48 27 103 27q51 0 84 -17q1 0 39 -26q46 38 84 38q37 0 76 -31v-84zM367 339q0 63 -36 102q-34 36 -82 36q-49 0 -83 -36q-37 -39 -37 -102q0 -146 121 -146q56 0 86.5 39 t30.5 107zM415 -82q0 103 -171 103q-156 0 -156 -106q0 -54 44 -83q40 -27 109 -27q77 0 125.5 28.5t48.5 84.5z" />
<glyph unicode="h" horiz-adv-x="613" d="M587 25q0 -23 -28 -25h-133v312q0 69 -13 100q-20 49 -78 49q-84 0 -119 -104q-15 -43 -18 -104v-203h74q28 -2 28 -25t-28 -25h-212q-29 2 -29 25t29 25h74v633h-87q-27 1 -27 24t28 26h155v-328q36 115 158 115q82 0 114 -88q14 -37 16 -89v-293h67q29 -2 29 -25z" />
<glyph unicode="i" horiz-adv-x="310" d="M202 683q0 -19 -13.5 -33t-32.5 -14q-20 0 -33.5 14t-13.5 33t13.5 33t33.5 14q19 0 32.5 -14t13.5 -33zM187 511v-461h75q28 -1 28 -25q0 -23 -28 -25h-213q-28 3 -28 25q0 24 28 25h75v410h-87q-27 2 -27 24q0 24 28 27h149z" />
<glyph unicode="j" horiz-adv-x="306" d="M261 683q0 -19 -14 -33t-33 -14q-20 0 -33.5 14t-13.5 33t13.5 33t33.5 14q19 0 33 -14t14 -33zM246 511v-578q0 -77 -20 -115q-29 -58 -108 -58q-62 0 -111 32q-11 8 -5 17l16 29q4 10 19 2q29 -24 77 -24q68 0 68 84v560h-86q-28 2 -28 24q0 24 28 27h150z" />
<glyph unicode="k" horiz-adv-x="589" d="M45 0q-29 2 -29 25q0 24 29 25h74v633h-87q-27 1 -27 24q0 24 28 26h150v-436l197 163h-57q-28 1 -28 25q0 23 28 25h190q28 -2 28 -25q0 -24 -28 -25h-56l-164 -139l166 -271h74q29 -2 29 -25t-28 -25h-115l-171 283l-65 -51v-182h73q28 -1 28 -25q0 -23 -28 -25h-211z M6 710z" />
<glyph unicode="l" horiz-adv-x="310" d="M192 733v-679h75q28 -3 28 -27q0 -23 -28 -27h-213q-28 4 -28 27q0 24 28 27h75v625h-87q-27 4 -27 27q0 24 28 27h149z" />
<glyph unicode="m" horiz-adv-x="904" d="M878 25q0 -23 -28 -25h-139v312q0 65 -10 96q-18 53 -71 53q-93 0 -127 -90q-16 -42 -16 -102v-219h77q29 -2 29 -25t-28 -25h-142l-1 312q0 72 -10 100q-19 49 -76 49q-88 0 -122 -102q-16 -49 -16 -106v-203h74q28 -1 28 -25q0 -23 -28 -25h-212q-29 2 -29 25 q0 24 29 25h74v410h-87q-27 2 -27 25t28 26h150v-115q42 124 164 124q65 0 95 -51q18 -31 18 -60q0 18 32 54q50 56 134 56q88 0 120 -88q13 -37 15 -88v-293h73q29 -2 29 -25z" />
<glyph unicode="n" horiz-adv-x="605" d="M586 25q0 -23 -28 -25h-132v312q0 69 -12 100q-20 49 -78 49q-69 0 -107 -73q-30 -58 -31 -135v-203h74q27 -1 27 -25q0 -23 -27 -25h-212q-29 2 -29 25q0 24 29 25h74v410h-87q-27 2 -27 25t28 26h150v-115q40 124 162 124q86 0 117 -87q14 -39 14 -92v-291h66 q29 -2 29 -25z" />
<glyph unicode="o" horiz-adv-x="526" d="M475 258q0 -139 -66 -210q-56 -59 -145 -59t-146 59q-67 71 -67 210q0 133 75 206q60 58 138 58t138 -58q73 -73 73 -206zM404 258q0 111 -52 169q-39 45 -89 45q-54 0 -92 -44q-50 -56 -50 -171q0 -126 55 -181q36 -37 86 -37q61 0 97 46q45 57 45 173z" />
<glyph unicode="p" horiz-adv-x="560" d="M509 241q0 -162 -98 -222q-45 -28 -101 -28q-45 0 -82 24q-25 17 -46 45v-246h73q28 -2 28 -24q0 -23 -28 -25h-212q-29 2 -29 25q0 22 29 24h74v646h-88q-27 2 -27 25t28 26h152v-87q8 33 47 61q43 32 94 32q59 0 103 -35q83 -67 83 -241zM443 254q0 84 -29 143 q-33 69 -100 69q-49 0 -87 -38.5t-42 -87.5q-2 -24 -4 -37l1 -150q1 -10 6 -30q16 -40 53 -62q31 -19 66 -19q71 0 107 62q30 52 29 150z" />
<glyph unicode="q" horiz-adv-x="551" d="M50 244q0 157 78 228q51 46 115 46q90 0 134 -77v10q0 13 6.5 34.5t11.5 26.5h68q-7 -10 -14 -39t-7 -46v-612h74q29 -2 29 -24q0 -23 -29 -25h-212q-28 2 -28 25q0 22 28 24h73v251q-6 -10 -13 -18q-18 -20 -37 -31q-46 -25 -83 -25q-54 -3 -108 38q-86 65 -86 214z M250 467q-74 0 -108 -79q-25 -57 -25 -141q0 -70 23 -122q34 -78 111 -78q44 0 82 33q44 38 44 93v147q0 73 -45 114q-36 33 -82 33z" />
<glyph unicode="r" horiz-adv-x="436" d="M428 395q-22 -28 -27 -28q-25 0 -26 28v61q-23 12 -41 12q-94 0 -124 -127q-13 -52 -12 -126v-165h85q28 -1 28 -25q0 -23 -28 -25h-223q-29 2 -29 25q0 24 29 25h75v410h-88q-27 2 -27 25t28 26h150v-107q34 116 143 116q59 0 87 -31v-94z" />
<glyph unicode="s" horiz-adv-x="402" d="M222 523q70 0 129 -39v-84q-4 -28 -27 -28q-24 0 -26 28v55q-43 19 -75 19q-35 0 -64 -19q-37 -25 -37 -71q0 -47 52 -75l92 -38q100 -47 100 -148q0 -55 -54 -97q-47 -37 -116 -38q-101 -1 -155 53v91q4 28 27 28q24 0 26 -28v-62q9 -9 35 -18q32 -12 64 -12q46 0 76 25 t30 60q0 50 -54 85q-6 3 -73 33q-50 22 -62 31q-53 40 -53 108q0 87 80 123q42 18 85 18z" />
<glyph unicode="t" horiz-adv-x="340" d="M5 485q0 24 28 26h58v133q0 14 12 14h40q12 0 12 -13v-134h126q28 -2 28 -26q0 -23 -27 -25h-127v-317q0 -41 4 -55q13 -44 61 -44q50 0 79 18q11 7 14 -2l16 -24q5 -9 -5 -18q-37 -29 -111 -29q-85 0 -112 65q-13 32 -10 68v338h-59q-27 3 -27 25z" />
<glyph unicode="u" horiz-adv-x="595" d="M575 25q0 -24 -28 -25h-150v69q-46 -79 -140 -79q-92 0 -128 84q-19 44 -19 93v293h-79q-29 2 -29 25t29 26h143v-313q0 -60 9 -88q21 -61 83 -61q95 0 122 98q9 32 9 109v204h-80q-28 2 -28 25t29 26h142l1 -461h86q28 -2 28 -25z" />
<glyph unicode="v" horiz-adv-x="597" d="M582 485q0 -24 -29 -25h-59l-168 -449q-12 -24 -33 -24q-22 0 -33 24l-165 449h-52q-28 1 -28 25q0 23 28 25h175q29 -2 29 -25q0 -24 -29 -25h-56l132 -378l134 378h-51q-27 1 -27 25q0 23 27 25h176q29 -2 29 -25z" />
<glyph unicode="w" horiz-adv-x="856" d="M832 485q0 -24 -30 -25h-59l-154 -449q-9 -24 -33 -24q-26 0 -33 24l-101 320l-108 -320q-8 -24 -33 -24q-26 0 -33 24l-141 449h-55q-28 1 -28 25q0 23 28 25h178q29 -2 29 -25q0 -24 -29 -25h-62l114 -377l115 362q8 25 25 25q16 0 24 -25l111 -362l124 377h-58 q-27 1 -27 25q0 23 27 25h179q30 -2 30 -25z" />
<glyph unicode="x" horiz-adv-x="574" d="M516 511q29 -3 29 -26t-29 -24h-48l-146 -196l146 -215h58q27 -1 27 -25q0 -23 -27 -25h-163q-29 2 -29 25q0 24 29 25h36l-111 169l-113 -169h40q28 -1 28 -25q0 -23 -28 -25h-166q-28 2 -28 25q0 24 28 25h58l145 215l-145 196h-45q-28 1 -28 24q0 24 28 26h157 q28 -3 28 -26t-28 -24h-44l113 -152l111 152h-43q-28 1 -28 24q0 24 28 26h160z" />
<glyph unicode="y" horiz-adv-x="591" d="M581 485q0 -24 -29 -25h-61l-208 -585q-15 -49 -49 -81q-37 -34 -88 -34q-61 0 -108 31q-11 7 -5 17l16 28q3 6 8 6q4 0 11 -4q37 -22 85 -22q52 0 74 73l34 111l-169 460h-52q-28 1 -28 25q0 23 28 25h178q29 -2 29 -25q0 -24 -29 -25h-59l134 -375l132 375h-52 q-27 1 -27 25q0 23 27 25h179q29 -2 29 -25z" />
<glyph unicode="z" horiz-adv-x="448" d="M418 488q0 -8 -14 -27l-285 -405h243v70q2 28 26 28q23 0 27 -28v-126h-356q-29 1 -29 24q0 9 15 26l286 403h-226v-75q-4 -28 -27 -28t-27 28v133h340q27 0 27 -23z" />
<glyph unicode="&#xaa;" horiz-adv-x="511" d="M506 25q0 -23 -28 -25h-153v55q-7 -20 -40 -41q-39 -25 -80 -25q-84 0 -127 45q-41 42 -38 110q7 168 286 168q0 90 -7 113q-17 53 -84 53q-109 0 -109 -84q0 -12 -9 -11h-38q-11 0 -11 9q0 47 36 83q45 47 128 47q156 0 156 -160v-312h90q28 -1 28 -25zM325 257 q-89 0 -133 -12q-91 -26 -91 -105q0 -101 106 -101q46 0 84 37q34 34 34 65v116z" />
<glyph unicode="&#xab;" horiz-adv-x="515" d="M213 513l9 -3l27 -15q9 -5 9 -10q0 -1 -4 -9l-151 -191l151 -190q5 -6 5 -9q0 -4 -10 -10l-27 -15q-5 -3 -9 -3q-6 0 -10 7l-168 211q-5 5 -5 9q0 5 5 10l168 211q6 7 10 7zM419 513l9 -3l27 -15q9 -5 9 -10q0 -1 -4 -9l-151 -191l151 -190q5 -6 5 -9q0 -4 -10 -10 l-27 -15q-5 -3 -9 -3q-6 0 -10 7l-168 211q-5 5 -5 9q0 5 5 10l168 211q6 7 10 7z" />
<glyph unicode="&#xad;" horiz-adv-x="399" d="M331 310q28 -4 28 -28q0 -23 -28 -28h-263q-28 5 -28 28q0 24 28 28h263z" />
<glyph unicode="&#x2212;" horiz-adv-x="399" d="M331 310q28 -4 28 -28q0 -23 -28 -28h-263q-28 5 -28 28q0 24 28 28h263z" />
<glyph unicode="&#xb2;" d="M253 743q52 0 97 -26q83 -46 83 -159q0 -89 -120 -255l-180 -247h289q28 0 28 -28q0 -29 -30 -28h-340q-30 12 -30 28q0 17 12 34l199 276q54 76 74 113q33 60 33 106q0 60 -31 94.5t-86 34.5q-93 0 -120 -86q-4 -27 -29 -27q-26 0 -26 31q0 56 52 97.5t125 41.5z" />
<glyph unicode="&#xb3;" d="M258 744q54 -1 99 -32q73 -51 73 -164q0 -57 -42 -100q-21 -21 -75 -54q66 -29 89 -49q57 -50 57 -143q0 -88 -69 -152q-64 -60 -144 -60q-147 0 -205 71q-7 10 0 18l23 27q1 0 4 2q6 3 11 -1q35 -32 72.5 -44t96.5 -12q51 0 95.5 44.5t44.5 105.5q0 94 -76 131 q-42 21 -97 21h-43q-13 0 -13 13v45q0 1 1.5 6t8.5 5h46q52 0 99 38.5t47 91.5q0 61 -35 100q-30 33 -68 34q-51 0 -83 -15q-15 -7 -58 -41q-10 -8 -14 1l-24 25q-9 8 -1 18q59 72 180 70z" />
<glyph unicode="&#xb4;" horiz-adv-x="489" d="M330 707q8 4 16 4q16 0 23 -13q4 -7 4 -13q0 -14 -15 -25l-188 -111q-8 -4 -16 -4q-14 0 -21 13q-4 6 -4 13q0 14 13 25zM330 707q8 4 16 4q16 0 23 -13q4 -7 4 -13q0 -14 -15 -25l-188 -111q-8 -4 -16 -4q-14 0 -21 13q-4 6 -4 13q0 14 13 25z" />
<glyph unicode="&#xb9;" horiz-adv-x="404" d="M248 740v-690h89q27 -1 27 -25q0 -23 -27 -25h-248q-29 2 -29 25q0 24 29 25h95v591l-101 -55q-27 4 -27 27q0 21 28 35z" />
<glyph unicode="&#xba;" horiz-adv-x="526" d="M475 258q0 -139 -66 -210q-56 -59 -145 -59t-146 59q-67 71 -67 210q0 133 75 206q60 58 138 58t138 -58q73 -73 73 -206zM404 258q0 111 -52 169q-39 45 -89 45q-54 0 -92 -44q-50 -56 -50 -171q0 -126 55 -181q36 -37 86 -37q61 0 97 46q45 57 45 173z" />
<glyph unicode="&#xbb;" horiz-adv-x="515" d="M279 285q0 -4 -5 -9l-168 -211q-4 -7 -10 -7q-4 0 -9 3l-27 15q-10 6 -10 10q0 3 5 9l151 190l-151 191q-4 8 -4 9q0 5 9 10l27 15l9 3q4 0 10 -7l168 -211q5 -5 5 -10zM485 285q0 -4 -5 -9l-168 -211q-4 -7 -10 -7q-4 0 -9 3l-27 15q-10 6 -10 10q0 3 5 9l151 190 l-151 191q-4 8 -4 9q0 5 9 10l27 15l9 3q4 0 10 -7l168 -211q5 -5 5 -10z" />
<glyph unicode="&#xc0;" horiz-adv-x="741" d="M190 970l188 -111q13 -11 13 -25q0 -7 -4 -13q-7 -13 -21 -13q-8 0 -16 4l-188 111q-15 11 -15 25q0 6 4 13q8 13 23 13q8 0 16 -4zM190 970l188 -111q13 -11 13 -25q0 -7 -4 -13q-7 -13 -21 -13q-8 0 -16 4l-188 111q-15 11 -15 25q0 6 4 13q8 13 23 13q8 0 16 -4z M719 25q0 -23 -28 -25h-213q-28 2 -28 25t28 25h77l-59 174h-256l-54 -174h77q28 -2 28 -25t-28 -25h-213q-28 2 -28 25t27 25h73l205 671q10 25 31 25q28 0 33 -23l229 -673h72q27 -2 27 -25zM480 277l-121 346l-107 -346h228z" />
<glyph unicode="&#xc1;" horiz-adv-x="741" d="M526 970q8 4 16 4q16 0 23 -13q4 -7 4 -13q0 -14 -15 -25l-188 -111q-8 -4 -16 -4q-14 0 -21 13q-4 6 -4 13q0 14 13 25zM526 970q8 4 16 4q16 0 23 -13q4 -7 4 -13q0 -14 -15 -25l-188 -111q-8 -4 -16 -4q-14 0 -21 13q-4 6 -4 13q0 14 13 25zM719 25q0 -23 -28 -25 h-213q-28 2 -28 25t28 25h77l-59 174h-256l-54 -174h77q28 -2 28 -25t-28 -25h-213q-28 2 -28 25t27 25h73l205 671q10 25 31 25q28 0 33 -23l229 -673h72q27 -2 27 -25zM480 277l-121 346l-107 -346h228z" />
<glyph unicode="&#xc2;" horiz-adv-x="741" d="M540 845q0 -3 -3 -7l-12 -22q-4 -8 -8 -8q-2 0 -7 4l-152 121l-153 -121q-6 -3 -7 -3q-4 0 -8 7l-12 22l-2 7q0 4 5 8l169 134q4 4 8 4q3 0 7 -4l169 -134q6 -3 6 -8zM351 802zM351 802zM719 25q0 -23 -28 -25h-213q-28 2 -28 25t28 25h77l-59 174h-256l-54 -174h77 q28 -2 28 -25t-28 -25h-213q-28 2 -28 25t27 25h73l205 671q10 25 31 25q28 0 33 -23l229 -673h72q27 -2 27 -25zM480 277l-121 346l-107 -346h228z" />
<glyph unicode="&#xc4;" horiz-adv-x="741" d="M719 25q0 -23 -28 -25h-213q-28 2 -28 25t28 25h77l-59 174h-256l-54 -174h77q28 -2 28 -25t-28 -25h-213q-28 2 -28 25t27 25h73l205 671q10 25 31 25q28 0 33 -23l229 -673h72q27 -2 27 -25zM480 277l-121 346l-107 -346h228zM505 810q0 -18 -12.5 -31t-30.5 -13 q-19 0 -31.5 13t-12.5 31t12.5 31t31.5 13q18 0 30.5 -13t12.5 -31zM296 810q0 -18 -12.5 -31t-30.5 -13q-19 0 -31.5 13t-12.5 31t12.5 31t31.5 13q18 0 30.5 -13t12.5 -31z" />
<glyph unicode="&#xc8;" horiz-adv-x="521" d="M102 970l188 -111q13 -11 13 -25q0 -7 -4 -13q-7 -13 -21 -13q-8 0 -16 4l-188 111q-15 11 -15 25q0 6 4 13q8 13 23 13q8 0 16 -4zM102 970l188 -111q13 -11 13 -25q0 -7 -4 -13q-7 -13 -21 -13q-8 0 -16 4l-188 111q-15 11 -15 25q0 6 4 13q8 13 23 13q8 0 16 -4z M489 733v-129q-4 -28 -27 -28q-24 0 -28 27v74l-244 1v-273h144v48q5 27 28 27t26 -28v-138q-4 -28 -27 -28t-27 28v38h-144v-297h259v74q11 28 29 28q23 0 27 -28v-129h-455q-11 0 -19.5 8.5t-8.5 19.5q0 27 27 27h75v623h-74q-28 0 -28 26q0 29 28 29h439z" />
<glyph unicode="&#xc9;" horiz-adv-x="521" d="M438 970q8 4 16 4q16 0 23 -13q4 -7 4 -13q0 -14 -15 -25l-188 -111q-8 -4 -16 -4q-14 0 -21 13q-4 6 -4 13q0 14 13 25zM438 970q8 4 16 4q16 0 23 -13q4 -7 4 -13q0 -14 -15 -25l-188 -111q-8 -4 -16 -4q-14 0 -21 13q-4 6 -4 13q0 14 13 25zM489 733v-129 q-4 -28 -27 -28q-24 0 -28 27v74l-244 1v-273h144v48q5 27 28 27t26 -28v-138q-4 -28 -27 -28t-27 28v38h-144v-297h259v74q11 28 29 28q23 0 27 -28v-129h-455q-11 0 -19.5 8.5t-8.5 19.5q0 27 27 27h75v623h-74q-28 0 -28 26q0 29 28 29h439z" />
<glyph unicode="&#xca;" horiz-adv-x="521" d="M451 845q0 -3 -3 -7l-12 -22q-4 -8 -8 -8q-2 0 -7 4l-152 121l-153 -121q-6 -3 -7 -3q-4 0 -8 7l-12 22l-2 7q0 4 5 8l169 134q4 4 8 4q3 0 7 -4l169 -134q6 -3 6 -8zM262 802zM262 802zM489 733v-129q-4 -28 -27 -28q-24 0 -28 27v74l-244 1v-273h144v48q5 27 28 27 t26 -28v-138q-4 -28 -27 -28t-27 28v38h-144v-297h259v74q11 28 29 28q23 0 27 -28v-129h-455q-11 0 -19.5 8.5t-8.5 19.5q0 27 27 27h75v623h-74q-28 0 -28 26q0 29 28 29h439z" />
<glyph unicode="&#xcc;" horiz-adv-x="311" d="M-11 970l188 -111q13 -11 13 -25q0 -7 -4 -13q-7 -13 -21 -13q-8 0 -16 4l-188 111q-15 11 -15 25q0 6 4 13q8 13 23 13q8 0 16 -4zM-11 970l188 -111q13 -11 13 -25q0 -7 -4 -13q-7 -13 -21 -13q-8 0 -16 4l-188 111q-15 11 -15 25q0 6 4 13q8 13 23 13q8 0 16 -4z M264 733q27 -2 27 -26q0 -22 -27 -24h-74v-633h74q27 -2 27 -25t-27 -25h-214q-28 2 -28 25t27 25h73v633h-72q-28 2 -28 24q0 24 28 26h214z" />
<glyph unicode="&#xcd;" horiz-adv-x="311" d="M325 970q8 4 16 4q16 0 23 -13q4 -7 4 -13q0 -14 -15 -25l-188 -111q-8 -4 -16 -4q-14 0 -21 13q-4 6 -4 13q0 14 13 25zM325 970q8 4 16 4q16 0 23 -13q4 -7 4 -13q0 -14 -15 -25l-188 -111q-8 -4 -16 -4q-14 0 -21 13q-4 6 -4 13q0 14 13 25zM264 733q27 -2 27 -26 q0 -22 -27 -24h-74v-633h74q27 -2 27 -25t-27 -25h-214q-28 2 -28 25t27 25h73v633h-72q-28 2 -28 24q0 24 28 26h214z" />
<glyph unicode="&#xce;" horiz-adv-x="311" d="M339 845q0 -3 -3 -7l-12 -22q-4 -8 -8 -8q-2 0 -7 4l-152 121l-153 -121q-6 -3 -7 -3q-4 0 -8 7l-12 22l-2 7q0 4 5 8l169 134q4 4 8 4q3 0 7 -4l169 -134q6 -3 6 -8zM150 802zM150 802zM264 733q27 -2 27 -26q0 -22 -27 -24h-74v-633h74q27 -2 27 -25t-27 -25h-214 q-28 2 -28 25t27 25h73v633h-72q-28 2 -28 24q0 24 28 26h214z" />
<glyph unicode="&#xd2;" horiz-adv-x="618" d="M141 970l188 -111q13 -11 13 -25q0 -7 -4 -13q-7 -13 -21 -13q-8 0 -16 4l-188 111q-15 11 -15 25q0 6 4 13q8 13 23 13q8 0 16 -4zM141 970l188 -111q13 -11 13 -25q0 -7 -4 -13q-7 -13 -21 -13q-8 0 -16 4l-188 111q-15 11 -15 25q0 6 4 13q8 13 23 13q8 0 16 -4z M588 365q0 -173 -75.5 -276t-203.5 -103q-130 0 -204.5 102.5t-74.5 276.5q0 172 78 277.5t201 105.5q116 0 192 -90q87 -103 87 -293zM514 370q0 159 -65 245q-55 74 -140 74t-141 -74q-65 -86 -65 -245t66 -249q57 -77 139 -77q84 0 141 77q65 89 65 249z" />
<glyph unicode="&#xd3;" horiz-adv-x="618" d="M477 970q8 4 16 4q16 0 23 -13q4 -7 4 -13q0 -14 -15 -25l-188 -111q-8 -4 -16 -4q-14 0 -21 13q-4 6 -4 13q0 14 13 25zM477 970q8 4 16 4q16 0 23 -13q4 -7 4 -13q0 -14 -15 -25l-188 -111q-8 -4 -16 -4q-14 0 -21 13q-4 6 -4 13q0 14 13 25zM588 365 q0 -173 -75.5 -276t-203.5 -103q-130 0 -204.5 102.5t-74.5 276.5q0 172 78 277.5t201 105.5q116 0 192 -90q87 -103 87 -293zM514 370q0 159 -65 245q-55 74 -140 74t-141 -74q-65 -86 -65 -245t66 -249q57 -77 139 -77q84 0 141 77q65 89 65 249z" />
<glyph unicode="&#xd4;" horiz-adv-x="618" d="M491 845q0 -3 -3 -7l-12 -22q-4 -8 -8 -8q-2 0 -7 4l-152 121l-153 -121q-6 -3 -7 -3q-4 0 -8 7l-12 22l-2 7q0 4 5 8l169 134q4 4 8 4q3 0 7 -4l169 -134q6 -3 6 -8zM302 802zM302 802zM588 365q0 -173 -75.5 -276t-203.5 -103q-130 0 -204.5 102.5t-74.5 276.5 q0 172 78 277.5t201 105.5q116 0 192 -90q87 -103 87 -293zM514 370q0 159 -65 245q-55 74 -140 74t-141 -74q-65 -86 -65 -245t66 -249q57 -77 139 -77q84 0 141 77q65 89 65 249z" />
<glyph unicode="&#xd6;" horiz-adv-x="618" d="M588 365q0 -173 -75.5 -276t-203.5 -103q-130 0 -204.5 102.5t-74.5 276.5q0 172 78 277.5t201 105.5q116 0 192 -90q87 -103 87 -293zM514 370q0 159 -65 245q-55 74 -140 74t-141 -74q-65 -86 -65 -245t66 -249q57 -77 139 -77q84 0 141 77q65 89 65 249zM458 835 q0 -18 -12.5 -31t-30.5 -13q-19 0 -31.5 13t-12.5 31t12.5 31t31.5 13q18 0 30.5 -13t12.5 -31zM249 835q0 -18 -12.5 -31t-30.5 -13q-19 0 -31.5 13t-12.5 31t12.5 31t31.5 13q18 0 30.5 -13t12.5 -31z" />
<glyph unicode="&#xd9;" horiz-adv-x="689" d="M176 970l188 -111q13 -11 13 -25q0 -7 -4 -13q-7 -13 -21 -13q-8 0 -16 4l-188 111q-15 11 -15 25q0 6 4 13q8 13 23 13q8 0 16 -4zM176 970l188 -111q13 -11 13 -25q0 -7 -4 -13q-7 -13 -21 -13q-8 0 -16 4l-188 111q-15 11 -15 25q0 6 4 13q8 13 23 13q8 0 16 -4z M669 707q0 -22 -28 -24h-73v-463q0 -103 -56 -165q-60 -66 -171 -66q-110 0 -169 68q-52 62 -52 163v463h-72q-28 2 -28 24q0 24 28 26h213q28 -2 28 -26q0 -22 -28 -24h-73v-463q0 -170 153 -170q159 0 159 170v463h-72q-28 2 -28 24q0 24 28 26h213q28 -2 28 -26z" />
<glyph unicode="&#xda;" horiz-adv-x="689" d="M512 970q8 4 16 4q16 0 23 -13q4 -7 4 -13q0 -14 -15 -25l-188 -111q-8 -4 -16 -4q-14 0 -21 13q-4 6 -4 13q0 14 13 25zM512 970q8 4 16 4q16 0 23 -13q4 -7 4 -13q0 -14 -15 -25l-188 -111q-8 -4 -16 -4q-14 0 -21 13q-4 6 -4 13q0 14 13 25zM669 707q0 -22 -28 -24 h-73v-463q0 -103 -56 -165q-60 -66 -171 -66q-110 0 -169 68q-52 62 -52 163v463h-72q-28 2 -28 24q0 24 28 26h213q28 -2 28 -26q0 -22 -28 -24h-73v-463q0 -170 153 -170q159 0 159 170v463h-72q-28 2 -28 24q0 24 28 26h213q28 -2 28 -26z" />
<glyph unicode="&#xdb;" horiz-adv-x="689" d="M527 845q0 -3 -3 -7l-12 -22q-4 -8 -8 -8q-2 0 -7 4l-152 121l-153 -121q-6 -3 -7 -3q-4 0 -8 7l-12 22l-2 7q0 4 5 8l169 134q4 4 8 4q3 0 7 -4l169 -134q6 -3 6 -8zM338 802zM338 802zM669 707q0 -22 -28 -24h-73v-463q0 -103 -56 -165q-60 -66 -171 -66 q-110 0 -169 68q-52 62 -52 163v463h-72q-28 2 -28 24q0 24 28 26h213q28 -2 28 -26q0 -22 -28 -24h-73v-463q0 -170 153 -170q159 0 159 170v463h-72q-28 2 -28 24q0 24 28 26h213q28 -2 28 -26z" />
<glyph unicode="&#xdc;" horiz-adv-x="689" d="M490 810q0 -18 -12.5 -31t-30.5 -13q-19 0 -31.5 13t-12.5 31t12.5 31t31.5 13q18 0 30.5 -13t12.5 -31zM281 810q0 -18 -12.5 -31t-30.5 -13q-19 0 -31.5 13t-12.5 31t12.5 31t31.5 13q18 0 30.5 -13t12.5 -31zM669 707q0 -22 -28 -24h-73v-463q0 -103 -56 -165 q-60 -66 -171 -66t-169 68q-52 62 -52 163v463h-72q-28 2 -28 24q0 24 28 26h213q28 -2 28 -26q0 -22 -28 -24h-73v-463q0 -170 153 -170q159 0 159 170v463h-72q-28 2 -28 24q0 24 28 26h213q28 -2 28 -26z" />
<glyph unicode="&#xdd;" horiz-adv-x="617" d="M476 970q8 4 16 4q16 0 23 -13q4 -7 4 -13q0 -14 -15 -25l-188 -111q-8 -4 -16 -4q-14 0 -21 13q-4 6 -4 13q0 14 13 25zM476 970q8 4 16 4q16 0 23 -13q4 -7 4 -13q0 -14 -15 -25l-188 -111q-8 -4 -16 -4q-14 0 -21 13q-4 6 -4 13q0 14 13 25zM602 708q0 -24 -29 -25 h-59l-177 -364v-269h71q28 -2 28 -25t-27 -25h-214q-28 2 -28 25t28 25h74v269l-174 364h-52q-28 1 -28 25q0 23 28 25h178q29 -2 29 -25q0 -24 -29 -25h-59l142 -294l144 294h-54q-27 1 -27 25q0 23 27 25h179q29 -2 29 -25z" />
<glyph unicode="&#xe0;" horiz-adv-x="511" d="M506 25q0 -23 -28 -25h-153v55q-7 -20 -40 -41q-39 -25 -80 -25q-84 0 -127 45q-41 42 -38 110q7 168 286 168q0 90 -7 113q-17 53 -84 53q-109 0 -109 -84q0 -12 -9 -11h-38q-11 0 -11 9q0 47 36 83q45 47 128 47q156 0 156 -160v-312h90q28 -1 28 -25zM325 257 q-89 0 -133 -12q-91 -26 -91 -105q0 -101 106 -101q46 0 84 37q34 34 34 65v116zM176 707l188 -111q13 -11 13 -25q0 -7 -4 -13q-7 -13 -21 -13q-8 0 -16 4l-188 111q-15 11 -15 25q0 6 4 13q8 13 23 13q8 0 16 -4z" />
<glyph unicode="&#xe1;" horiz-adv-x="511" d="M506 25q0 -23 -28 -25h-153v55q-7 -20 -40 -41q-39 -25 -80 -25q-84 0 -127 45q-41 42 -38 110q7 168 286 168q0 90 -7 113q-17 53 -84 53q-109 0 -109 -84q0 -12 -9 -11h-38q-11 0 -11 9q0 47 36 83q45 47 128 47q156 0 156 -160v-312h90q28 -1 28 -25zM325 257 q-89 0 -133 -12q-91 -26 -91 -105q0 -101 106 -101q46 0 84 37q34 34 34 65v116zM321 707q8 4 16 4q15 0 23 -13q4 -7 4 -13q0 -14 -15 -25l-188 -111q-8 -4 -16 -4q-14 0 -21 13q-4 6 -4 13q0 14 13 25z" />
<glyph unicode="&#xe2;" horiz-adv-x="511" d="M506 25q0 -23 -28 -25h-153v55q-7 -20 -40 -41q-39 -25 -80 -25q-84 0 -127 45q-41 42 -38 110q7 168 286 168q0 90 -7 113q-17 53 -84 53q-109 0 -109 -84q0 -12 -9 -11h-38q-11 0 -11 9q0 47 36 83q45 47 128 47q156 0 156 -160v-312h90q28 -1 28 -25zM325 257 q-89 0 -133 -12q-91 -26 -91 -105q0 -101 106 -101q46 0 84 37q34 34 34 65v116zM412 565q0 -3 -3 -7l-12 -22q-4 -8 -8 -8q-2 0 -7 4l-152 121l-153 -121q-6 -3 -7 -3q-4 0 -8 7l-12 22l-2 7q0 4 5 8l169 134q4 4 8 4q3 0 7 -4l169 -134q6 -3 6 -8z" />
<glyph unicode="&#xe4;" horiz-adv-x="511" d="M379 631q0 -18 -12.5 -31t-30.5 -13t-31 13t-13 31t13 31t31 13t30.5 -13t12.5 -31zM190 631q0 -18 -12.5 -31t-30.5 -13q-19 0 -31.5 13t-12.5 31t12.5 31t31.5 13q18 0 30.5 -13t12.5 -31zM511 25q0 -23 -28 -25h-153v44q-12 -20 -43 -36q-36 -19 -77 -19q-52 0 -90 16 q-84 36 -80 139q7 168 291 168q0 90 -7 113q-17 53 -84 53q-109 0 -109 -84q0 -12 -9 -11h-38q-11 0 -11 9q0 47 36 83q45 47 128 47q156 0 156 -160v-312h90q28 -1 28 -25zM330 257q-91 0 -135 -12q-94 -26 -94 -105q0 -101 111 -101q47 0 83 32q35 29 35 64v122z" />
<glyph unicode="&#xe7;" horiz-adv-x="488" d="M265 524q96 0 159 -50v-81q-4 -28 -27 -28q-24 0 -26 28v57q-41 24 -107 24q-53 0 -92 -45q-51 -59 -51 -174q0 -124 54 -179q34 -34 79 -34t80 27q41 32 41 85q0 14 11 14h44q7 0 7 -12q0 -46 -27 -89q-42 -68 -132 -77l-6 -1q-1 -12 -2 -41q74 -7 74 -62q0 -32 -27 -50 q-23 -16 -56 -16q-60 0 -60 15q0 2 1 4v4l3 18q2 5 5 5q-2 0 15 -4t37 -4q40 0 40 27q0 21 -39 25.5t-39 16.5q0 -1 1 13l3 49q-76 8 -123 68q-55 71 -55 201q0 134 77 208q61 58 138 58z" />
<glyph unicode="&#xe8;" horiz-adv-x="489" d="M439 256h-323q0 -217 133 -217q110 0 127 106q0 14 10 14h40q8 0 8 -12q-7 -82 -63 -123q-47 -35 -121 -35q-96 0 -149 74q-51 71 -51 195q0 133 70 206q56 58 128 58q70 0 119 -47q72 -68 72 -219zM373 310q0 81 -44 126q-34 36 -75 36q-45 0 -80 -33q-45 -43 -55 -129 h254zM172 707l188 -111q13 -11 13 -25q0 -7 -4 -13q-7 -13 -21 -13q-8 0 -16 4l-188 111q-15 11 -15 25q0 6 4 13q8 13 23 13q8 0 16 -4z" />
<glyph unicode="&#xe9;" horiz-adv-x="489" d="M439 256h-323q0 -217 133 -217q110 0 127 106q0 14 10 14h40q8 0 8 -12q-7 -82 -63 -123q-47 -35 -121 -35q-96 0 -149 74q-51 71 -51 195q0 133 70 206q56 58 128 58q70 0 119 -47q72 -68 72 -219zM373 310q0 81 -44 126q-34 36 -75 36q-45 0 -80 -33q-45 -43 -55 -129 h254zM321 707q8 4 16 4q15 0 23 -13q4 -7 4 -13q0 -14 -15 -25l-188 -111q-8 -4 -16 -4q-14 0 -21 13q-4 6 -4 13q0 14 13 25z" />
<glyph unicode="&#xea;" horiz-adv-x="489" d="M439 256h-323q0 -217 133 -217q110 0 127 106q0 14 10 14h40q8 0 8 -12q-7 -82 -63 -123q-47 -35 -121 -35q-96 0 -149 74q-51 71 -51 195q0 133 70 206q56 58 128 58q70 0 119 -47q72 -68 72 -219zM373 310q0 81 -44 126q-34 36 -75 36q-45 0 -80 -33q-45 -43 -55 -129 h254zM437 565q0 -3 -3 -7l-12 -22q-4 -8 -8 -8q-2 0 -7 4l-152 121l-153 -121q-6 -3 -7 -3q-4 0 -8 7l-12 22l-2 7q0 4 5 8l169 134q4 4 8 4q3 0 7 -4l169 -134q6 -3 6 -8z" />
<glyph unicode="&#xec;" horiz-adv-x="489" d="M70 718l121 -69q13 -11 13 -25q0 -7 -4 -13q-7 -13 -21 -13q-8 0 -16 4l-121 69q-15 11 -15 25q0 6 4 13q8 13 23 13q8 0 16 -4zM187 511v-461h75q28 -1 28 -25q0 -23 -28 -25h-213q-28 3 -28 25q0 24 28 25h75v410h-87q-27 2 -27 24q0 24 28 27h149z" />
<glyph unicode="&#xed;" horiz-adv-x="489" d="M179 718q8 4 16 4q15 0 23 -13q4 -7 4 -13q0 -14 -15 -25l-121 -69q-8 -4 -16 -4q-14 0 -21 13q-4 6 -4 13q0 14 13 25zM187 511v-461h75q28 -1 28 -25q0 -23 -28 -25h-213q-28 3 -28 25q0 24 28 25h75v410h-87q-27 2 -27 24q0 24 28 27h149z" />
<glyph unicode="&#xee;" horiz-adv-x="489" />
<glyph unicode="&#xf2;" horiz-adv-x="526" d="M475 258q0 -139 -66 -210q-56 -59 -145 -59t-146 59q-67 71 -67 210q0 133 75 206q60 58 138 58t138 -58q73 -73 73 -206zM404 258q0 111 -52 169q-39 45 -89 45q-54 0 -92 -44q-50 -56 -50 -171q0 -126 55 -181q36 -37 86 -37q61 0 97 46q45 57 45 173zM176 707 l188 -111q13 -11 13 -25q0 -7 -4 -13q-7 -13 -21 -13q-8 0 -16 4l-188 111q-15 11 -15 25q0 6 4 13q8 13 23 13q8 0 16 -4z" />
<glyph unicode="&#xf3;" horiz-adv-x="526" d="M475 258q0 -139 -66 -210q-56 -59 -145 -59t-146 59q-67 71 -67 210q0 133 75 206q60 58 138 58t138 -58q73 -73 73 -206zM404 258q0 111 -52 169q-39 45 -89 45q-54 0 -92 -44q-50 -56 -50 -171q0 -126 55 -181q36 -37 86 -37q61 0 97 46q45 57 45 173zM321 707 q8 4 16 4q15 0 23 -13q4 -7 4 -13q0 -14 -15 -25l-188 -111q-8 -4 -16 -4q-14 0 -21 13q-4 6 -4 13q0 14 13 25z" />
<glyph unicode="&#xf4;" horiz-adv-x="526" d="M475 258q0 -139 -66 -210q-56 -59 -145 -59t-146 59q-67 71 -67 210q0 133 75 206q60 58 138 58t138 -58q73 -73 73 -206zM404 258q0 111 -52 169q-39 45 -89 45q-54 0 -92 -44q-50 -56 -50 -171q0 -126 55 -181q36 -37 86 -37q61 0 97 46q45 57 45 173zM454 565 q0 -3 -3 -7l-12 -22q-4 -8 -8 -8q-2 0 -7 4l-152 121l-153 -121q-6 -3 -7 -3q-4 0 -8 7l-12 22l-2 7q0 4 5 8l169 134q4 4 8 4q3 0 7 -4l169 -134q6 -3 6 -8z" />
<glyph unicode="&#xf6;" horiz-adv-x="526" d="M399 631q0 -18 -12.5 -31t-30.5 -13t-31 13t-13 31t13 31t31 13t30.5 -13t12.5 -31zM210 631q0 -18 -12.5 -31t-30.5 -13q-19 0 -31.5 13t-12.5 31t12.5 31t31.5 13q18 0 30.5 -13t12.5 -31zM475 258q0 -139 -66 -210q-56 -59 -145 -59t-146 59q-67 71 -67 210 q0 133 77 206q61 58 136 58q76 0 136 -58q75 -73 75 -206zM405 258q0 111 -52 169q-40 45 -90 45q-54 0 -92 -44q-51 -56 -51 -171q0 -125 55 -181q37 -37 87 -37q61 0 98 46q45 57 45 173z" />
<glyph unicode="&#xf9;" horiz-adv-x="595" d="M575 25q0 -24 -28 -25h-150v69q-46 -79 -140 -79q-92 0 -128 84q-19 44 -19 93v293h-79q-29 2 -29 25t29 26h143v-313q0 -60 9 -88q21 -61 83 -61q95 0 122 98q9 32 9 109v204h-80q-28 2 -28 25t29 26h142l1 -461h86q28 -2 28 -25zM172 707l188 -111q13 -11 13 -25 q0 -7 -4 -13q-7 -13 -21 -13q-8 0 -16 4l-188 111q-15 11 -15 25q0 6 4 13q8 13 23 13q8 0 16 -4z" />
<glyph unicode="&#xfa;" horiz-adv-x="595" d="M575 25q0 -24 -28 -25h-150v69q-46 -79 -140 -79q-92 0 -128 84q-19 44 -19 93v293h-79q-29 2 -29 25t29 26h143v-313q0 -60 9 -88q21 -61 83 -61q95 0 122 98q9 32 9 109v204h-80q-28 2 -28 25t29 26h142l1 -461h86q28 -2 28 -25zM321 707q8 4 16 4q15 0 23 -13 q4 -7 4 -13q0 -14 -15 -25l-188 -111q-8 -4 -16 -4q-14 0 -21 13q-4 6 -4 13q0 14 13 25z" />
<glyph unicode="&#xfb;" horiz-adv-x="595" d="M575 25q0 -24 -28 -25h-150v69q-46 -79 -140 -79q-92 0 -128 84q-19 44 -19 93v293h-79q-29 2 -29 25t29 26h143v-313q0 -60 9 -88q21 -61 83 -61q95 0 122 98q9 32 9 109v204h-80q-28 2 -28 25t29 26h142l1 -461h86q28 -2 28 -25zM437 565q0 -3 -3 -7l-12 -22 q-4 -8 -8 -8q-2 0 -7 4l-152 121l-153 -121q-6 -3 -7 -3q-4 0 -8 7l-12 22l-2 7q0 4 5 8l169 134q4 4 8 4q3 0 7 -4l169 -134q6 -3 6 -8z" />
<glyph unicode="&#xfc;" horiz-adv-x="591" d="M411 631q0 -18 -12.5 -31t-30.5 -13t-31 13t-13 31t13 31t31 13t30.5 -13t12.5 -31zM222 631q0 -18 -12.5 -31t-30.5 -13q-19 0 -31.5 13t-12.5 31t12.5 31t31.5 13q18 0 30.5 -13t12.5 -31zM571 25q0 -24 -28 -25h-150v69q-45 -79 -139 -79q-91 0 -127 85q-17 43 -17 94 v291h-79q-29 2 -29 25t29 26h143v-313q0 -62 8 -88q20 -61 82 -61q130 0 130 174v22l-1 11v204h-80q-28 2 -28 25t29 26h142l1 -461h86q28 -2 28 -25z" />
<glyph unicode="&#xfd;" horiz-adv-x="591" d="M464 744q8 4 16 4q16 0 23 -13q4 -7 4 -13q0 -14 -15 -25l-188 -111q-8 -4 -16 -4q-14 0 -21 13q-4 6 -4 13q0 14 13 25zM464 744q8 4 16 4q16 0 23 -13q4 -7 4 -13q0 -14 -15 -25l-188 -111q-8 -4 -16 -4q-14 0 -21 13q-4 6 -4 13q0 14 13 25zM581 485q0 -24 -29 -25 h-61l-208 -585q-15 -49 -49 -81q-37 -34 -88 -34q-61 0 -108 31q-11 7 -5 17l16 28q3 6 8 6q4 0 11 -4q37 -22 85 -22q52 0 74 73l34 111l-169 460h-52q-28 1 -28 25q0 23 28 25h178q29 -2 29 -25q0 -24 -29 -25h-59l134 -375l132 375h-52q-27 1 -27 25q0 23 27 25h179 q29 -2 29 -25z" />
<glyph unicode="&#x152;" horiz-adv-x="1139" d="M1107 733v-129q-4 -28 -27 -28q-24 0 -28 27v74l-244 1v-273h144v48q5 27 28 27t26 -28v-138q-4 -28 -27 -28t-27 28v38h-144v-297h259v74q11 28 29 28q23 0 27 -28v-129h-455q-11 0 -19.5 8.5t-8.5 19.5q0 27 27 27h75v623h-74q-28 0 -28 26q0 29 28 29h439zM588 365 q0 -173 -75.5 -276t-203.5 -103q-130 0 -204.5 102.5t-74.5 276.5q0 172 78 277.5t201 105.5q116 0 192 -90q87 -103 87 -293zM514 370q0 159 -65 245q-55 74 -140 74t-141 -74q-65 -86 -65 -245t66 -249q57 -77 139 -77q84 0 141 77q65 89 65 249z" />
<glyph unicode="&#x153;" horiz-adv-x="1015" d="M965 256h-323q0 -217 133 -217q110 0 127 106q0 14 10 14h40q8 0 8 -12q-7 -82 -63 -123q-47 -35 -121 -35q-96 0 -149 74q-51 71 -51 195q0 133 70 206q56 58 128 58q70 0 119 -47q72 -68 72 -219zM899 310q0 81 -44 126q-34 36 -75 36q-45 0 -80 -33q-45 -43 -55 -129 h254zM475 258q0 -139 -66 -210q-56 -59 -145 -59t-146 59q-67 71 -67 210q0 133 75 206q60 58 138 58t138 -58q73 -73 73 -206zM404 258q0 111 -52 169q-39 45 -89 45q-54 0 -92 -44q-50 -56 -50 -171q0 -126 55 -181q36 -37 86 -37q61 0 97 46q45 57 45 173z" />
<glyph unicode="&#x2c6;" horiz-adv-x="489" d="M437 565q0 -3 -3 -7l-12 -22q-4 -8 -8 -8q-2 0 -7 4l-152 121l-153 -121q-6 -3 -7 -3q-4 0 -8 7l-12 22l-2 7q0 4 5 8l169 134q4 4 8 4q3 0 7 -4l169 -134q6 -3 6 -8zM248 522zM248 522z" />
<glyph unicode="&#x2000;" horiz-adv-x="495" />
<glyph unicode="&#x2001;" horiz-adv-x="991" />
<glyph unicode="&#x2002;" horiz-adv-x="495" />
<glyph unicode="&#x2003;" horiz-adv-x="991" />
<glyph unicode="&#x2004;" horiz-adv-x="330" />
<glyph unicode="&#x2005;" horiz-adv-x="247" />
<glyph unicode="&#x2006;" horiz-adv-x="165" />
<glyph unicode="&#x2007;" horiz-adv-x="165" />
<glyph unicode="&#x2008;" horiz-adv-x="123" />
<glyph unicode="&#x2009;" horiz-adv-x="198" />
<glyph unicode="&#x200a;" horiz-adv-x="55" />
<glyph unicode="&#x2011;" horiz-adv-x="399" d="M331 310q28 -4 28 -28q0 -23 -28 -28h-263q-28 5 -28 28q0 24 28 28h263z" />
<glyph unicode="&#x2013;" d="M458 310q28 -4 28 -28q0 -23 -28 -28h-416q-28 5 -28 28q0 24 28 28h416z" />
<glyph unicode="&#x2014;" horiz-adv-x="1000" d="M901 310q28 -4 28 -28q0 -23 -28 -28h-808q-28 5 -28 28q0 24 28 28h808z" />
<glyph unicode="&#x2018;" horiz-adv-x="489" d="M172 707l188 -111q13 -11 13 -25q0 -7 -4 -13q-7 -13 -21 -13q-8 0 -16 4l-188 111q-15 11 -15 25q0 6 4 13q8 13 23 13q8 0 16 -4zM172 707l188 -111q13 -11 13 -25q0 -7 -4 -13q-7 -13 -21 -13q-8 0 -16 4l-188 111q-15 11 -15 25q0 6 4 13q8 13 23 13q8 0 16 -4z" />
<glyph unicode="&#x2022;" horiz-adv-x="365" d="M290 279q0 -45 -31 -76.5t-76 -31.5q-44 0 -76 31.5t-32 76.5t32 76.5t76 31.5q45 0 76 -31.5t31 -76.5z" />
<glyph unicode="&#x2026;" horiz-adv-x="1018" d="M569 56q0 -25 -17.5 -42.5t-42.5 -17.5t-42.5 17.5t-17.5 42.5t17.5 42.5t42.5 17.5t42.5 -17.5t17.5 -42.5zM220 56q0 -25 -17.5 -42.5t-42.5 -17.5t-42.5 17.5t-17.5 42.5t17.5 42.5t42.5 17.5t42.5 -17.5t17.5 -42.5zM918 56q0 -25 -17.5 -42.5t-42.5 -17.5 q-24 0 -42 17.5t-18 42.5t18 42.5t42 17.5q25 0 42.5 -17.5t17.5 -42.5z" />
<glyph unicode="&#x202f;" horiz-adv-x="198" />
<glyph unicode="&#x2039;" horiz-adv-x="289" d="M213 513l9 -3l27 -15q9 -5 9 -10q0 -1 -4 -9l-151 -191l151 -190q5 -6 5 -9q0 -4 -10 -10l-27 -15q-5 -3 -9 -3q-6 0 -10 7l-168 211q-5 5 -5 9q0 5 5 10l168 211q6 7 10 7z" />
<glyph unicode="&#x203a;" horiz-adv-x="289" d="M259 285q0 -4 -5 -9l-168 -211q-4 -7 -10 -7q-4 0 -9 3l-27 15q-10 6 -10 10q0 3 5 9l151 190l-151 191q-4 8 -4 9q0 5 9 10l27 15l9 3q4 0 10 -7l168 -211q5 -5 5 -10z" />
<glyph unicode="&#x205f;" horiz-adv-x="247" />
<glyph unicode="&#x2122;" horiz-adv-x="1406" d="M1327 733q28 -2 28 -26q0 -22 -28 -24h-73l28 -633h74q27 -2 27 -25t-28 -25h-213q-28 2 -28 25t28 25h74l-27 600l-172 -584q-10 -25 -31 -25q-28 0 -33 23l-181 587l-29 -601h74q28 -2 28 -25t-28 -25h-213q-28 2 -28 25t27 25h75l30 633h-74q-28 2 -28 24q0 24 28 26 h138h30q12 -2 15 -13l165 -562l162 562q3 11 15 13h30h138zM544 733v-129q-3 -28 -27 -28q-23 0 -28 27v75l-178 1v-629h84q28 -2 28 -25t-28 -25h-235q-28 2 -28 25t27 25h83v629l-177 -1v-75q-5 -27 -28 -27t-27 28v129h534z" />
</font>
</defs>
</svg>
